<svg width="148" height="47" viewBox="0 0 593 190" fill="none" xmlns="http://www.w3.org/2000/svg">
    <path fill-rule="evenodd" clip-rule="evenodd"
          d="M205.922 8.50439C212.837 13.3083 219.871 20.593 219.871 27.633V151.681C219.871 158.629 213.414 168.459 207.533 172.377C228.277 172.377 249.02 172.377 269.766 172.377C310.031 170.691 334.455 155.939 337.374 125.012C339.422 103.32 328.126 86.448 300.377 76.9355C314.222 71.5902 321.664 59.9496 322.345 43.8929C323.512 16.2745 291.837 8.50439 271.913 8.50439H205.922V8.50439ZM244.55 74.9256V23.2045H263.648C285.316 23.2045 295.522 33.9926 295.518 50.2525C295.516 66.5125 280.866 74.9256 262.581 74.9256H244.55V74.9256ZM264.909 156.588H244.55V89.6236H267.62C301.988 89.6236 312.384 110.594 310.54 127.734C308.699 144.875 294.181 156.588 264.909 156.588ZM392.172 8.50439H358.354C365.875 16.9963 369.156 21.4559 369.156 34.6169V147.665C369.156 160.687 363.467 168.677 355.309 174.331H400.306C393.624 170.193 386.432 162.068 386.432 147.364V47.4959C409.163 78.3107 431.896 109.124 454.629 139.936C467.517 157.047 482.459 171.55 499.883 182.91V34.0216C499.883 19.112 505.807 13.4245 513.734 8.50439H469.861C477.815 14.4906 482.03 21.2526 482.03 33.4284V133.135L392.172 8.50439V8.50439ZM538.634 174.331C547.736 168.202 552.364 161.013 552.364 151.679V33.2687C552.364 19.2676 548.382 16.1023 540.574 8.50439H592.509C583.545 13.6236 577.255 24.0798 577.255 33.2687V151.353C577.255 160.413 582.539 168.712 589.706 174.331H538.634V174.331Z"
          fill="#007697"/>
    <path fill-rule="evenodd" clip-rule="evenodd"
          d="M2.453 8.50439H52.5872C49.9686 13.0636 47.9858 23.3144 53.0553 46.3405C57.5605 66.807 70.5918 88.1571 84.1852 105.033L67.1045 119.264L2.453 36.8343V8.50439V8.50439ZM75.6653 8.50439H163.922V30.2071C157.097 26.1582 144.646 22.2462 126.368 29.6657C96.8731 41.6382 94.3465 76.697 94.3465 76.697C78.0304 56.6972 67.2987 23.9077 75.6653 8.50439V8.50439ZM163.922 58.9934V123.587C143.867 131.31 115.738 111.227 108.672 87.3855C98.4266 52.8267 122.574 40.3543 139.849 43.7747C152.759 46.3322 160.255 54.1397 163.922 58.9934V58.9934ZM163.922 134.191V172.359H109.831L120.675 163.325C113.6 164.201 99.6981 160.824 92.93 152.193L73.889 127.916L91.2967 113.415C101.994 125.379 112.182 133.975 117.94 136.553C130.274 142.075 144.166 144.74 163.922 134.191V134.191ZM79.6248 172.359H20.5353L57.352 141.689C60.365 145.531 63.2738 149.243 66.0375 152.768C71.4585 159.681 76.0128 166.509 79.6248 172.359ZM3.36264 172.359H2.453V71.6939C16.5145 89.6215 34.4762 112.523 50.5676 133.039L3.36264 172.359V172.359Z"
          fill="#EC6722"/>
</svg>
