<svg width="40" height="40" viewBox="0 0 40 40" fill="none" xmlns="http://www.w3.org/2000/svg">
<rect width="40" height="40" rx="20" fill="#e55300"/>
<path d="M10.8333 31C10.8333 31 9 31 9 29.1667C9 27.3333 10.8333 21.8333 20 21.8333C29.1667 21.8333 31 27.3333 31 29.1667C31 31 29.1667 31 29.1667 31H10.8333ZM20 20C21.4587 20 22.8576 19.4205 23.8891 18.3891C24.9205 17.3576 25.5 15.9587 25.5 14.5C25.5 13.0413 24.9205 11.6424 23.8891 10.6109C22.8576 9.57946 21.4587 9 20 9C18.5413 9 17.1424 9.57946 16.1109 10.6109C15.0795 11.6424 14.5 13.0413 14.5 14.5C14.5 15.9587 15.0795 17.3576 16.1109 18.3891C17.1424 19.4205 18.5413 20 20 20V20Z" fill="white"/>
</svg>
